<svg xmlns="http://www.w3.org/2000/svg" viewBox="0 0 488 490.773" width="100%" height="100%"><defs><clipPath id="prefix__a"><path data-name="Path 165" d="M160 320.111l320 162.662V.111l-160 160L.35 0l-.351 480.111" fill="none" stroke="#707070" stroke-width="4"/></clipPath></defs><g data-name="Group 14"><g data-name="Group 13"><g data-name="Group 12" clip-path="url(#prefix__a)" transform="translate(4 3.799)"><g data-name="Group 4" fill="none" stroke="#fff" stroke-linecap="round" stroke-linejoin="round" stroke-width="4"><g data-name="Group 1"><path data-name="Path 2" d="M286.361 342.184l-12.412 12.41-18.578-9.3 12.4-12.4z"/><path data-name="Path 3" d="M246.165 322.092l-12.412 12.412-10.8-5.41-10.8-5.4 12.4-12.4 10.8 5.4z"/><path data-name="Path 4" d="M224.56 311.294l-12.4 12.4-10.809-5.4-10.808-5.4-10.8-5.41 12.4-12.4 10.808 5.4 10.809 5.4z"/><path data-name="Path 5" d="M192.146 295.087l-12.4 12.4-10.8-5.4-10.809-5.4 12.412-12.412 10.8 5.41z"/><path data-name="Path 6" d="M170.551 284.278l-12.412 12.412-10.809-5.4-10.8-5.41 12.4-12.4 10.809 5.4z"/><path data-name="Path 7" d="M-2.305 197.856l-12.412 12.412-10.8-5.41-10.8-5.4 12.412-12.412 10.8 5.4z"/><path data-name="Path 8" d="M19.311 208.653L6.899 221.065l-10.808-5.4-10.809-5.4 12.412-12.412 10.808 5.4z"/><path data-name="Path 9" d="M40.907 219.461l-12.412 12.412-10.8-5.41-10.8-5.4 12.419-12.414 10.786 5.41h.011z"/><path data-name="Path 10" d="M148.934 273.482l-12.4 12.4-10.8-5.4-10.82-5.4-10.8-5.4-10.8-5.41-10.809-5.4-10.808-5.4-10.8-5.41-10.8-5.4-10.808-5.4-10.809-5.4 12.412-12.412 10.808 5.4 10.809 5.4 10.786 5.41h.011l10.8 5.4 10.809 5.4 10.809 5.4 10.8 5.41 10.8 5.4 10.808 5.41z"/><path data-name="Path 11" d="M342.109 370.069l-12.4 12.4-18.59-9.3 12.4-12.4z"/><path data-name="Path 12" d="M215.366 288.074l-12.412 12.412-10.808-5.4-10.8-5.4 12.412-12.412 10.8 5.4z"/><path data-name="Path 13" d="M193.761 277.276l-12.412 12.412-10.8-5.41-10.808-5.4 12.412-12.412 10.8 5.4z"/><path data-name="Path 14" d="M172.158 266.468l-12.412 12.412-10.809-5.4-10.8-5.4 9.233-14.282 13.977 7.268z"/><path data-name="Path 15" d="M147.37 253.796l-9.233 14.282-10.808-5.41-10.8-5.4 12.412-12.412 10.8 5.4z"/><path data-name="Path 16" d="M128.944 244.862l-12.412 12.412-10.8-5.41-10.809-5.4 12.4-12.4 10.809 5.4z"/><path data-name="Path 17" d="M107.326 234.069l-12.4 12.4-10.808-5.4-10.8-5.4 12.4-12.412 10.808 5.4z"/><path data-name="Path 18" d="M85.722 223.257l-12.4 12.412h-.011l-10.786-5.41-10.808-5.4 12.4-12.4 10.809 5.4z"/><path data-name="Path 19" d="M64.12 212.459l-12.4 12.4-10.808-5.4-10.8-5.4 12.4-12.412 10.808 5.4z"/><path data-name="Path 20" d="M42.51 201.651l-12.4 12.412h-.011l-10.786-5.41-10.809-5.4 12.4-12.4 10.809 5.4z"/><path data-name="Path 21" d="M20.904 190.854l-12.4 12.4-10.808-5.4-10.8-5.41 12.4-12.4 10.808 5.4z"/><path data-name="Path 22" d="M-.701 180.045l-12.4 12.4-10.8-5.4-10.82-5.4-10.8-5.4-10.8-5.41-10.809-5.4 12.412-12.4 10.8 5.4 10.809 5.4 10.8 5.4 10.809 5.41z"/><path data-name="Path 23" d="M258.578 309.679l-12.412 12.412-10.809-5.4-10.8-5.4-10.8-5.41-10.809-5.4 12.412-12.412 10.8 5.4 10.808 5.41 10.8 5.4z"/><path data-name="Path 24" d="M354.521 357.656l-12.411 12.413-18.59-9.3 12.412-12.412z"/><path data-name="Path 25" d="M348.343 335.949l-12.412 12.412-18.579-9.3 12.412-12.407z"/><path data-name="Path 26" d="M329.764 326.651l-12.412 12.412-18.581-9.292 12.4-12.4z"/><path data-name="Path 27" d="M311.171 317.37l-12.4 12.4-18.59-9.284 12.412-12.412z"/><path data-name="Path 28" d="M305.008 295.664l-12.412 12.412-10.808-5.4-10.8-5.41-10.809-5.4-10.8-5.4 12.412-12.412 10.8 5.4 10.8 5.41 10.808 5.4z"/><path data-name="Path 29" d="M261.796 274.057l-12.412 12.41-10.808-5.4-10.8-5.41 12.4-12.4 10.809 5.4z"/><path data-name="Path 30" d="M240.179 263.26l-12.4 12.4-10.808-5.4-10.8-5.4 12.412-12.412 10.8 5.4z"/><path data-name="Path 31" d="M218.585 252.452l-12.412 12.412-10.809-5.4-10.8-5.41 12.4-12.4 10.809 5.4z"/><path data-name="Path 32" d="M196.969 241.654l-12.4 12.4-10.809-5.4-10.8-5.4 12.412-12.412 10.8 5.4z"/><path data-name="Path 33" d="M175.374 230.846l-12.412 12.412-10.808-5.41-10.8-5.4 12.4-12.4 10.8 5.4z"/><path data-name="Path 34" d="M153.757 220.044l-12.4 12.4-10.809-5.4-10.808-5.4 12.412-12.412 10.809 5.4z"/><path data-name="Path 35" d="M132.151 209.24l-12.412 12.412-10.8-5.41-10.808-5.4 12.412-12.4 10.8 5.4z"/><path data-name="Path 36" d="M110.546 198.443l-12.412 12.4-10.8-5.4-10.808-5.4 12.412-12.412 10.808 5.4z"/><path data-name="Path 37" d="M88.941 187.635l-12.412 12.412-10.8-5.41-10.808-5.4 12.412-12.4 10.8 5.4z"/><path data-name="Path 38" d="M67.334 176.838l-12.412 12.4-10.8-5.4-10.808-5.4 12.412-12.412 10.809 5.4z"/><path data-name="Path 39" d="M45.729 166.028L33.317 178.44l-10.8-5.41-10.809-5.4 12.413-12.4 10.8 5.4z"/><path data-name="Path 40" d="M24.121 155.232l-12.413 12.4-10.8-5.4-10.808-5.4L2.512 144.42l10.809 5.4z"/><path data-name="Path 41" d="M317.42 283.251l-12.412 12.412-10.808-5.4-10.808-5.4-10.8-5.41-10.8-5.4-10.808-5.4 12.416-12.402 10.808 5.4 10.8 5.4 10.808 5.4 10.8 5.4z"/><path data-name="Path 42" d="M263.401 256.247l-12.412 12.412-10.809-5.4-10.8-5.41 12.412-12.412 10.808 5.4z"/><path data-name="Path 43" d="M241.795 245.439l-12.41 12.412-10.8-5.4-10.808-5.4 12.4-12.412h.011l10.809 5.4z"/><path data-name="Path 44" d="M220.178 234.641l-12.4 12.412-10.809-5.4-10.8-5.41 12.412-12.412 10.808 5.4z"/><path data-name="Path 45" d="M198.583 223.833l-12.412 12.412-10.8-5.4-10.82-5.4 12.412-12.412 10.82 5.4z"/><path data-name="Path 46" d="M176.966 213.035l-12.412 12.412-10.8-5.4-10.8-5.41 12.417-12.409 10.8 5.41z"/><path data-name="Path 47" d="M155.372 202.227l-12.412 12.412-10.809-5.4-10.808-5.4 12.412-12.412 10.809 5.4z"/><path data-name="Path 48" d="M133.755 191.429l-12.409 12.413-10.8-5.4-10.8-5.41 12.412-12.412 10.8 5.4h.011z"/><path data-name="Path 49" d="M112.16 180.621l-12.412 12.412-10.808-5.4-10.808-5.4 12.412-12.412 10.808 5.4z"/><path data-name="Path 50" d="M90.544 169.824l-12.412 12.412-10.8-5.4-10.8-5.41 12.412-12.412 10.8 5.4h.011z"/><path data-name="Path 51" d="M68.949 159.012l-12.412 12.412-10.808-5.4-10.808-5.4 12.412-12.412 10.809 5.4z"/><path data-name="Path 52" d="M47.335 148.219l-12.412 12.412-10.8-5.4-10.8-5.41 12.412-12.412 10.8 5.41z"/><path data-name="Path 53" d="M2.517 144.423l-12.412 12.412-10.8-5.41-10.809-5.4-10.8-5.4 12.4-12.412 10.808 5.41 10.8 5.4z"/><path data-name="Path 54" d="M286.609 249.244l-12.4 12.4-10.808-5.4-10.8-5.41 12.4-12.4 10.8 5.4z"/><path data-name="Path 55" d="M308.216 260.043l-12.4 12.4-10.809-5.4-10.8-5.4 12.4-12.4 10.8 5.4z"/><path data-name="Path 56" d="M329.821 270.85l-12.4 12.4-10.809-5.41-10.8-5.4 12.4-12.4 10.8 5.4z"/><path data-name="Path 57" d="M348.41 280.134l-12.412 12.412-18.579-9.3 12.4-12.4z"/><path data-name="Path 58" d="M367.002 289.428L354.59 301.84l-18.59-9.3 12.412-12.412z"/><path data-name="Path 59" d="M385.569 298.723l-12.4 12.4-18.579-9.284 12.412-12.412z"/><path data-name="Path 60" d="M404.159 308.018l-12.4 12.4-18.59-9.3 12.4-12.4z"/><path data-name="Path 61" d="M265.004 238.436l-12.4 12.4-10.808-5.4-10.8-5.4 12.4-12.4 10.8 5.4z"/><path data-name="Path 62" d="M243.399 227.638l-12.4 12.4-10.809-5.4h-.011l-10.786-5.41 12.4-12.4 10.8 5.4z"/><path data-name="Path 63" d="M221.793 216.83l-12.4 12.4-10.808-5.4-10.8-5.4 12.4-12.4 10.8 5.4z"/><path data-name="Path 64" d="M200.187 206.033l-12.4 12.4-10.82-5.4-10.8-5.4 12.412-12.412 10.8 5.4z"/><path data-name="Path 65" d="M178.58 195.225l-12.412 12.412-10.8-5.41-10.808-5.4 12.412-12.412 10.809 5.4z"/><path data-name="Path 66" d="M156.976 184.416l-12.416 12.412-10.809-5.4-10.786-5.41 12.4-12.4 10.8 5.4z"/><path data-name="Path 67" d="M135.37 173.619l-12.4 12.4h-.011l-10.8-5.4-10.808-5.4 12.412-12.412 10.809 5.4z"/><path data-name="Path 68" d="M113.764 162.81l-12.412 12.412-10.808-5.4-10.786-5.41 12.4-12.4 10.8 5.4z"/><path data-name="Path 69" d="M92.159 152.013l-12.4 12.4h-.011l-10.8-5.4-10.808-5.4 12.412-12.412 10.808 5.4z"/><path data-name="Path 70" d="M70.553 141.204l-12.412 12.413-10.809-5.4-10.8-5.4 12.412-12.412 10.8 5.4z"/><path data-name="Path 71" d="M48.947 130.408L36.535 142.82l-10.8-5.41-10.808-5.4 12.412-12.412 10.809 5.4z"/><path data-name="Path 72" d="M27.342 119.599L14.93 132.011l-10.809-5.4-10.8-5.4-10.809-5.41 12.412-12.412 10.809 5.41 10.8 5.4z"/></g><path data-name="Line 1" d="M-79.523 183.737l427.63 213.815"/><g data-name="Group 2"><path data-name="Path 73" d="M397.925 342.127l-24.813 24.813-18.59-9.284 12.412-12.412 12.412-12.412z"/><path data-name="Path 74" d="M422.749 317.303l-12.412 12.412-18.579-9.3 12.4-12.4z"/><path data-name="Path 75" d="M410.337 329.715l-12.412 12.412-18.579-9.3 12.412-12.412z"/><path data-name="Path 76" d="M373.111 366.94l-12.412 12.412-12.412 12.412-18.579-9.295 24.813-24.813z"/><path data-name="Path 77" d="M391.758 320.42l-12.409 12.412-18.59-9.3 12.412-12.412z"/><path data-name="Path 78" d="M379.346 332.832l-12.412 12.412-18.59-9.3 12.412-12.412z"/><path data-name="Path 79" d="M360.755 323.538l-12.412 12.412-18.579-9.3 12.412-12.4z"/><path data-name="Path 80" d="M366.934 345.244l-12.412 12.412-18.59-9.295 12.412-12.412z"/><path data-name="Path 81" d="M373.168 311.125l-12.412 12.413-18.579-9.284 12.412-12.412z"/><path data-name="Path 82" d="M323.519 360.774l-12.4 12.4-18.59-9.284-18.579-9.3 12.412-12.412 18.579 9.295z"/><path data-name="Path 83" d="M335.999 292.546l-12.413 12.412-18.579-9.3 12.412-12.412z"/><path data-name="Path 84" d="M354.589 301.841l-12.412 12.412-18.59-9.295 12.412-12.412z"/><path data-name="Path 85" d="M342.177 314.254l-12.412 12.4-18.59-9.284 12.412-12.412z"/><path data-name="Path 86" d="M323.586 304.956l-12.412 12.412-18.579-9.3 12.412-12.412z"/></g><g data-name="Group 3"><path data-name="Path 87" d="M.914 162.234l-12.412 12.412-10.809-5.41-10.8-5.4-10.806-5.397-10.8-5.4 12.412-12.412 10.8 5.4 10.809 5.4 10.8 5.41z"/><path data-name="Path 88" d="M-23.898 187.048L-36.31 199.46l-10.82-5.4-10.8-5.4-10.8-5.41-10.8-5.4 12.4-12.412 10.808 5.4 10.8 5.41 10.8 5.4z"/><path data-name="Path 89" d="M4.121 126.617l-12.412 12.412-10.8-5.4-10.809-5.41 12.412-12.412 10.809 5.41z"/><path data-name="Path 90" d="M25.738 137.41l-12.412 12.412-10.809-5.4-10.808-5.4L4.121 126.61l10.809 5.4z"/><path data-name="Path 91" d="M22.52 173.032l-12.412 12.412-10.808-5.4-10.8-5.4L.912 162.232l10.8 5.4z"/><path data-name="Path 92" d="M44.125 183.84l-12.412 12.412-10.809-5.4-10.8-5.41 12.412-12.412 10.8 5.41z"/><path data-name="Path 93" d="M65.73 194.638L53.318 207.05l-10.808-5.4-10.8-5.4 12.412-12.412 10.8 5.4z"/><path data-name="Path 94" d="M87.336 205.446l-12.41 12.412-10.809-5.4-10.8-5.41 12.409-12.411 10.8 5.41z"/><path data-name="Path 95" d="M108.942 216.242L96.53 228.654l-10.808-5.4-10.8-5.4 12.412-12.412 10.8 5.4z"/><path data-name="Path 96" d="M130.548 227.052l-12.412 12.412-10.809-5.4-10.8-5.41 12.412-12.412 10.8 5.41z"/><path data-name="Path 97" d="M152.153 237.848l-12.412 12.412-10.8-5.4-10.809-5.4 12.412-12.412 10.809 5.4z"/><path data-name="Path 98" d="M173.759 248.657l-12.412 12.412-13.977-7.268-7.629-3.54 12.412-12.412 10.808 5.41z"/><path data-name="Path 99" d="M195.365 259.465l-12.412 12.4-10.8-5.4-10.809-5.4 12.412-12.412 10.809 5.4z"/><path data-name="Path 100" d="M216.971 270.263l-12.412 12.412-10.8-5.4-10.808-5.41 12.412-12.4 10.808 5.4z"/><path data-name="Path 101" d="M238.575 281.076l-12.412 12.4-10.8-5.4-10.809-5.4 12.412-12.412 10.808 5.4z"/><path data-name="Path 102" d="M292.595 308.076l-12.412 12.412-10.808-5.41-10.8-5.4-10.808-5.4-10.8-5.4-10.808-5.41 12.412-12.4 10.809 5.4 10.8 5.4 10.809 5.4 10.8 5.41z"/><path data-name="Path 103" d="M267.771 332.9l-12.4 12.4-10.809-5.4-10.809-5.4 12.412-12.412 10.808 5.4z"/><path data-name="Path 104" d="M335.931 348.361l-12.413 12.413-18.579-9.3 12.412-12.412z"/><path data-name="Path 105" d="M317.352 339.066l-12.412 12.412-18.579-9.295 12.412-12.412z"/><path data-name="Path 106" d="M298.773 329.772l-12.412 12.412-18.59-9.284 12.412-12.412z"/><path data-name="Path 107" d="M280.184 320.488L267.772 332.9l-10.8-5.41-10.808-5.4 12.414-12.41 10.8 5.4z"/></g><path data-name="Line 2" d="M348.355 397.325l74.394-74.394"/><path data-name="Line 3" d="M-79.523 178.002v5.561"/><path data-name="Line 4" d="M348.107 391.765v5.561"/><path data-name="Line 5" d="M422.749 317.37v5.561"/></g><g data-name="Group 7"><g data-name="Group 5" fill="none" stroke="#fff" stroke-linecap="round" stroke-linejoin="round" stroke-width="4"><path data-name="Line 6" d="M454.564 372.681l21.11-21.11"/><path data-name="Path 108" d="M503.595 380.062l-57.608 57.608a10.409 10.409 0 01-12.012 1.948l-51.243-25.635a10.4 10.4 0 01-2.7-16.661l57.608-57.608a10.4 10.4 0 0112.012-1.948l51.243 25.632a10.4 10.4 0 012.7 16.664z"/></g><g data-name="Group 6"><path data-name="Path 109" d="M507.432 382.744l-61.158 61.158a11.044 11.044 0 01-12.751 2.067l-54.4-27.214a11.045 11.045 0 01-2.869-17.687l61.158-61.158a11.046 11.046 0 0112.754-2.07l54.4 27.214a11.046 11.046 0 012.866 17.69z" fill="none" stroke="#fff" stroke-linecap="round" stroke-linejoin="round" stroke-width="4"/></g></g><path data-name="Path 110" d="M81.801-34.826V86.649l364.777 182.383V-18.126" fill="none" stroke="#fff" stroke-linecap="round" stroke-linejoin="round" stroke-width="4"/><path data-name="Path 111" d="M86.436-38.684V82.79l354.283 178.507V-25.862" fill="none" stroke="#fff" stroke-linecap="round" stroke-linejoin="round" stroke-width="4"/><path data-name="Line 7" fill="none" stroke="#fff" stroke-linecap="round" stroke-linejoin="round" stroke-width="4" d="M462.766 252.463V.646"/><path data-name="Line 8" fill="none" stroke="#fff" stroke-linecap="round" stroke-linejoin="round" stroke-width="4" d="M446.758 269.165l16.007-16.007"/><g data-name="Group 8" fill="none" stroke="#fff" stroke-linecap="round" stroke-linejoin="round" stroke-width="4"><path data-name="Line 9" d="M342.544 251.887l-174.008-87.01"/><path data-name="Line 10" d="M191.778 141.638l-23.242 23.239"/><path data-name="Line 11" d="M365.79 228.644l-23.246 23.243"/></g><g data-name="Group 9" fill="none" stroke="#fff" stroke-linecap="round" stroke-linejoin="round" stroke-width="4"><path data-name="Line 12" d="M354.571 23.965l-7.725-3.862"/><path data-name="Path 112" d="M362.285 27.817l7.725 3.862 7.714 3.863 7.725 3.863 7.725 3.862"/><path data-name="Path 113" d="M271.412-17.619l5.952 2.981 7.725 3.863 7.714 3.851 7.725 3.862 7.714 3.863 7.725 3.862 7.725 3.863 7.714 3.851 7.725 3.863"/><path data-name="Path 114" d="M346.846 36.141l-7.714-3.863-7.725-3.862-7.714-3.851-7.725-3.862-7.725-3.863-7.714-3.863-7.725-3.862-7.714-3.851-7.725-3.862"/><path data-name="Path 115" d="M400.888 63.156l7.725 3.863 7.714 3.863"/><path data-name="Path 116" d="M362.285 43.855l7.725 3.863 7.714 3.862 7.725 3.863 7.725 3.862"/><path data-name="Path 117" d="M331.406 44.453l7.725 3.863 7.714 3.862"/><path data-name="Line 13" d="M408.613 83.057l-7.725-3.863"/><path data-name="Path 118" d="M393.174 75.343l-7.725-3.863-7.725-3.863-7.714-3.862-7.725-3.863-7.714-3.851"/><path data-name="Path 119" d="M323.692 40.602l-7.725-3.862-7.725-3.863"/><path data-name="Path 120" d="M346.846 68.216l-7.714-3.862-7.725-3.863-7.714-3.851-7.725-3.863"/><path data-name="Path 121" d="M354.571 72.079l7.714 3.851 7.725 3.862 7.714 3.863 7.725 3.862"/><path data-name="Line 14" d="M400.888 95.232l-7.714-3.851"/><path data-name="Path 122" d="M308.242 48.914l-7.714-3.862-7.725-3.863-7.714-3.851-7.725-3.863"/><path data-name="Path 123" d="M377.723 99.682l7.725 3.863 7.725 3.862 7.714 3.851 7.725 3.862"/><path data-name="Path 124" d="M331.406 76.517l7.725 3.863 7.714 3.863 7.725 3.862 7.714 3.851 7.725 3.862"/><path data-name="Path 125" d="M323.692 72.666l-7.725-3.863-7.725-3.862-7.714-3.863-7.725-3.862-7.714-3.851"/><path data-name="Path 126" d="M308.238 80.979l7.725 3.863 7.725 3.862 7.714 3.851 7.725 3.862"/><path data-name="Line 15" d="M354.571 104.142l-7.725-3.862"/><path data-name="Path 127" d="M331.406 108.593l-7.714-3.851-7.725-3.862-7.725-3.863"/><path data-name="Path 128" d="M377.723 131.757l7.725 3.863 7.725 3.863 7.714 3.851"/><path data-name="Line 16" d="M416.327 151.058l-7.714-3.862"/><path data-name="Path 129" d="M370.009 127.894l-7.725-3.863-7.714-3.851-7.725-3.863-7.714-3.862"/><path data-name="Path 130" d="M370.014 143.921l-7.725-3.862-7.714-3.851-7.725-3.863-7.714-3.862-7.725-3.863"/><path data-name="Path 131" d="M377.723 147.784l7.725 3.862 7.725 3.863 7.714 3.851 7.725 3.863"/><path data-name="Line 17" d="M323.693 120.768l-7.725-3.863"/><path data-name="Path 132" d="M385.449 167.683l-7.725-3.863-7.714-3.863-7.725-3.862"/><path data-name="Path 133" d="M331.406 140.657l7.725 3.863 7.714 3.863 7.725 3.862"/><path data-name="Path 134" d="M370.01 175.996l-7.725-3.863-7.714-3.852-7.725-3.862"/><path data-name="Path 135" d="M339.133 160.557l-7.725-3.863-7.714-3.851-7.725-3.862"/></g><g data-name="Group 10" fill="none" stroke="#fff" stroke-linecap="round" stroke-linejoin="round" stroke-width="4"><path data-name="Line 18" d="M3.011 272.54l-7.725-3.862"/><path data-name="Path 136" d="M10.725 276.393l7.725 3.863 7.714 3.862 7.725 3.863 7.725 3.862"/><path data-name="Path 137" d="M-80.148 230.956l5.952 2.982 7.725 3.862 7.714 3.851 7.725 3.862 7.714 3.863 7.725 3.863 7.725 3.862 7.714 3.852 7.725 3.862"/><path data-name="Path 138" d="M-4.715 284.716l-7.714-3.862-7.725-3.863-7.714-3.851-7.725-3.862-7.725-3.863-7.714-3.862-7.725-3.863-7.714-3.851-7.725-3.863"/><path data-name="Path 139" d="M49.328 311.732l7.725 3.863 7.714 3.862"/><path data-name="Path 140" d="M10.725 292.429l7.725 3.863 7.714 3.862 7.725 3.863 7.725 3.863"/><path data-name="Path 141" d="M-20.154 293.029l7.725 3.863 7.714 3.862"/><path data-name="Line 19" d="M57.053 331.632l-7.725-3.863"/><path data-name="Path 142" d="M26.164 316.193l-7.714-3.863-7.725-3.862-7.714-3.852"/><path data-name="Path 144" d="M-27.868 289.177l-7.725-3.863-7.725-3.862"/><path data-name="Path 145" d="M-4.714 316.792l-7.714-3.863-7.725-3.862-7.714-3.851-7.725-3.863"/><path data-name="Line 20" d="M26.164 332.23l7.725 3.863"/><path data-name="Line 21" d="M3.011 320.654l7.714 3.851"/><path data-name="Line 22" d="M49.328 343.807l-7.714-3.851"/><path data-name="Path 146" d="M-43.315 297.49l-7.714-3.863-7.725-3.862-7.714-3.852-7.725-3.863"/><path data-name="Path 147" d="M26.167 348.257l7.725 3.863 7.725 3.862 7.714 3.851 7.725 3.863"/><path data-name="Line 23" d="M10.724 340.532l7.725 3.863"/><path data-name="Path 148" d="M-20.154 325.093l7.725 3.862 7.714 3.863 7.725 3.863"/><path data-name="Path 149" d="M-27.868 321.241l-7.725-3.862-7.725-3.863-7.714-3.863-7.725-3.862-7.714-3.851"/><path data-name="Path 150" d="M-43.318 329.554l7.725 3.863 7.725 3.862 7.714 3.851 7.725 3.863"/><path data-name="Line 24" d="M3.011 352.718l-7.725-3.863"/><path data-name="Path 151" d="M-20.153 357.168l-7.714-3.851-7.725-3.863-7.725-3.862"/><path data-name="Path 152" d="M26.167 380.333l7.725 3.862 7.725 3.863 7.714 3.851"/><path data-name="Line 25" d="M64.767 399.634l-7.714-3.863"/><path data-name="Line 26" d="M18.449 376.469l-7.725-3.862"/><path data-name="Line 27" d="M-12.428 377.056l-7.725-3.862"/><path data-name="Line 28" d="M3.011 384.782l-7.725-3.862"/><path data-name="Line 29" d="M18.449 392.495l-7.725-3.862"/><path data-name="Line 30" d="M49.328 407.935l7.725 3.862"/><path data-name="Line 31" d="M26.164 396.359l7.725 3.863"/><path data-name="Line 32" d="M-27.868 369.343l-7.725-3.863"/><path data-name="Path 157" d="M-12.428 393.094l7.714 3.863 7.725 3.863"/><path data-name="Path 159" d="M18.449 424.571l-7.725-3.863-7.714-3.851-7.725-3.863"/><path data-name="Path 160" d="M-12.428 409.133l-7.73-3.864-7.714-3.851-7.725-3.862"/></g><path data-name="Line 33" fill="none" stroke="#fff" stroke-linecap="round" stroke-linejoin="round" stroke-width="4" d="M-7.893 24.449v-.902"/><path data-name="Line 34" fill="none" stroke="#fff" stroke-linecap="round" stroke-linejoin="round" stroke-width="4" d="M-7.893 60.676v-.902"/><g data-name="Group 11" fill="none" stroke="#fff" stroke-linecap="round" stroke-linejoin="round" stroke-width="4"><path data-name="Path 161" d="M68.146 39.419c0 10.974-12.952 19.866-28.932 19.866s-28.92-8.888-28.92-19.866 12.952-19.866 28.923-19.866 28.929 8.892 28.929 19.866z"/><path data-name="Path 162" d="M68.146 39.419V80.07c0 10.974-12.952 19.866-28.932 19.866S10.291 91.044 10.291 80.07V39.419c0 10.974 12.952 19.866 28.923 19.866s28.932-8.892 28.932-19.866z"/><path data-name="Path 163" d="M19.25 53.788a36.733 36.733 0 0019.964 5.5 36.747 36.747 0 0019.97-5.5 36.748 36.748 0 00-19.97-5.5 36.734 36.734 0 00-19.964 5.5z"/></g><path data-name="Rectangle 1" stroke-width="4" stroke="#fff" stroke-linecap="round" stroke-linejoin="round" fill="none" d="M-29.187 37.349h21.294V74.75h-21.294z"/><path data-name="Path 164" d="M-26.349 303.396l-3.84 3.84a18.922 18.922 0 013.84-3.84z" fill="none" stroke="#fff" stroke-linecap="round" stroke-linejoin="round" stroke-width="4"/></g></g><g data-name="Path 166" fill="none" stroke-linecap="round" stroke-linejoin="round"><path d="M4.35 4.001l-.351 480.112 160-160 320 162.662V4.112l-160 160z"/><path d="M4.35 4L4 484.113l160-160 320 162.662V4.112l-160 160L4.35 4.001m0-4c.613 0 1.227.14 1.792.423l317.07 158.82 157.96-157.96A4 4 0 01488 4.111v482.662a4 4 0 01-5.813 3.566L164.776 328.994 6.828 486.94A4 4 0 010 484.109L.35 3.998A4 4 0 014.35 0z" fill="#fff"/></g><path data-name="Line 35" fill="none" stroke="#fff" stroke-linecap="round" stroke-linejoin="round" stroke-width="4" d="M357.174 271.408l31.651-31.651"/><path data-name="Line 36" fill="none" stroke="#fff" stroke-linecap="round" stroke-linejoin="round" stroke-width="4" d="M482.532 145.891l-15.766 15.767"/><path data-name="Line 37" fill="none" stroke="#fff" stroke-linecap="round" stroke-linejoin="round" stroke-width="4" d="M483.706 334.944l-126.532-63.27"/><path data-name="Line 38" fill="none" stroke="#fff" stroke-linecap="round" stroke-linejoin="round" stroke-width="4" d="M147.951 166.176l-89.457-44.732"/><path data-name="Line 39" fill="none" stroke="#fff" stroke-linecap="round" stroke-linejoin="round" stroke-width="4" d="M146.091 161.798l-30.175-15.089"/><path data-name="Line 40" fill="none" stroke="#fff" stroke-linecap="round" stroke-linejoin="round" stroke-width="4" d="M164.399 154.99l-89.457-44.732"/><path data-name="Line 41" fill="none" stroke="#fff" stroke-linecap="round" stroke-linejoin="round" stroke-width="4" d="M162.539 150.612l-30.175-15.088"/><path data-name="Line 42" fill="none" stroke="#fff" stroke-linecap="round" stroke-linejoin="round" stroke-width="4" d="M433.121 241.273L102.518 75.96"/><path data-name="Line 43" fill="none" stroke="#fff" stroke-linecap="round" stroke-linejoin="round" stroke-width="4" d="M433.079 53.874v139.211"/></g></svg>